<?xml version="1.0" encoding="UTF-8" standalone="no"?>
<svg
    width="48"
    height="48"
    viewBox="0 0 48 48"
    fill="none"
    version="1.1"
    id="svg2"
    xmlns="http://www.w3.org/2000/svg"
>
  <defs
      id="defs2" />
  <path
      d="m 47.219222,9.1430178 c -0.2061,-0.20256 -0.4121,-0.30384 -0.6182,-0.30384 h -18.9593 c 0.5152,0.40512 1.0304,0.81023 1.4426,1.3166302 1.2364,1.31662 2.1638,2.83581 2.782,4.55755 0.1031,0.40511 0.2061,0.81023 0.3091,1.21535 h 5.3581 l -2.576,14.68539 c -0.2061,0.9116 -0.4121,1.5192 -0.6182,1.9243 -0.2061,0.4052 -0.7213,0.5064 -1.5456,0.5064 h -7.5219 l -1.3395,7.0896 h 9.4796 c 1.5456,0 2.8851,-0.1013 4.0186,-0.4052 1.1334,-0.3038 2.1638,-0.7089 2.8851,-1.4179 0.8243,-0.7089 1.4425,-1.6204 2.0608,-2.7345 0.5152,-1.2153 0.9273,-2.6332 1.2364,-4.4563 l 3.7095,-21.2685302 v -0.10128 c 0.103,-0.30383 0,-0.50639 -0.1031,-0.60767 z"
      fill="#2259e6"
      id="path1" />
  <path
      d="m 19.192722,40.235598 h -6.5945 c -1.44257,0 -2.8851198,-0.2025 -4.2246298,-0.6076 -1.33952,-0.4051 -2.57599,-1.1141 -3.70943,-1.9243 -1.03039,-0.9115 -1.95775,-1.9243 -2.575984,-3.3422 -0.618237,-1.3167 -0.927356,-2.9371 -0.927356,-4.7601 0,-0.5064 0,-1.0128 0.10304,-1.5192 0.103039,-0.5064 0.103039,-1.0128 0.206079,-1.5192 l 0.618237,-3.7473 c 0.824314,-4.6589 2.679024,-8.10234 5.358054,-10.43176 2.7820698,-2.32941 6.3884898,-3.5447602 10.9221898,-3.5447602 1.8547,0 3.5033,0.30384 4.8429,0.81023 1.4425,0.6076802 2.5759,1.3166302 3.5033,2.3294202 0.9274,1.01279 1.6486,2.22813 2.1638,3.54476 0.5152,1.31663 0.7213,2.83581 0.7213,4.35501 0,0.5064 0,0.9115 -0.103,1.4179 -0.1031,0.5064 -0.1031,1.0128 -0.2061,1.4179 l -0.5152,3.0384 c -0.2061,0.8102 -0.6182,1.3166 -1.3395,1.3166 H 9.9191822 c -0.10304,0.4051 -0.10304,0.8102 -0.20608,1.1141 0,0.4051 -0.10304,0.7089 -0.10304,1.0127 0,1.4179 0.4121598,2.3295 1.1334398,2.9371 0.72132,0.5064 1.95772,0.8103 3.70942,0.8103 h 6.1824 z m 2.2669,-20.6609 c 0,-1.2153 -0.3091,-2.1268 -1.0304,-2.83576 -0.6182,-0.60768 -1.7517,-0.91151 -3.2973,-0.91151 -1.8547,0 -3.2972,0.60767 -4.2246,1.72177 -0.9274,1.114 -1.6486,2.6332 -2.06078,4.4562 h 10.30398 c 0.103,-0.4051 0.103,-0.8102 0.206,-1.2153 0,-0.5064 0.1031,-0.9115 0.1031,-1.2154 z"
      fill="#2259e6"
      id="path2" />
</svg>
