<?xml version="1.0" encoding="UTF-8" standalone="no"?>
<svg
    width="172"
    height="40"
    viewBox="0 0 172 40"
    fill="none"
    version="1.1"
    id="svg6"
    xmlns="http://www.w3.org/2000/svg"
>
  <path
     d="M50.68359375 30.263671875Q50.17578125 30.263671875 49.62890625 30.1904296875Q49.08203125 30.1171875 48.720703125 30.01953125V27.67578125Q49.08203125 27.7734375 49.3994140625 27.8173828125Q49.716796875 27.861328125 50.1171875 27.861328125Q50.72265625 27.861328125 51.142578125 27.5244140625Q51.5625 27.1875 51.5625 26.201171875V14.541015625H54.541015625V26.640625Q54.541015625 27.63671875 54.16015625 28.4619140625Q53.779296875 29.287109375 52.9296875 29.775390625Q52.080078125 30.263671875 50.68359375 30.263671875ZM51.435546875 11.71875Q51.435546875 10.87890625 51.9091796875 10.5712890625Q52.3828125 10.263671875 53.056640625 10.263671875Q53.720703125 10.263671875 54.19921875 10.5712890625Q54.677734375 10.87890625 54.677734375 11.71875Q54.677734375 12.548828125 54.19921875 12.8662109375Q53.720703125 13.18359375 53.056640625 13.18359375Q52.3828125 13.18359375 51.9091796875 12.8662109375Q51.435546875 12.548828125 51.435546875 11.71875ZM60.263671875 25.458984375 56.103515625 14.541015625H59.21875L61.328125 20.76171875Q61.50390625 21.30859375 61.6064453125 21.9140625Q61.708984375 22.51953125 61.748046875 22.998046875H61.826171875Q61.85546875 22.48046875 61.9677734375 21.89453125Q62.080078125 21.30859375 62.265625 20.76171875L64.365234375 14.541015625H67.48046875L63.3203125 25.458984375ZM81.865234375 14.3359375Q83.720703125 14.3359375 84.6728515625 15.2880859375Q85.625 16.240234375 85.625 18.33984375V25.458984375H82.63671875V19.08203125Q82.63671875 17.91015625 82.236328125 17.314453125Q81.8359375 16.71875 80.99609375 16.71875Q79.814453125 16.71875 79.31640625 17.5634765625Q78.818359375 18.408203125 78.818359375 19.98046875V25.458984375H75.83984375V19.08203125Q75.83984375 18.30078125 75.6640625 17.7734375Q75.48828125 17.24609375 75.126953125 16.982421875Q74.765625 16.71875 74.19921875 16.71875Q73.369140625 16.71875 72.8955078125 17.1337890625Q72.421875 17.548828125 72.2216796875 18.3544921875Q72.021484375 19.16015625 72.021484375 20.322265625V25.458984375H69.04296875V14.541015625H71.318359375L71.71875 15.9375H71.884765625Q72.216796875 15.37109375 72.7197265625 15.01953125Q73.22265625 14.66796875 73.828125 14.501953125Q74.43359375 14.3359375 75.05859375 14.3359375Q76.259765625 14.3359375 77.0947265625 14.7265625Q77.9296875 15.1171875 78.37890625 15.9375H78.642578125Q79.130859375 15.09765625 80.0244140625 14.716796875Q80.91796875 14.3359375 81.865234375 14.3359375ZM91.875 30.263671875Q89.58984375 30.263671875 88.3837890625 29.4677734375Q87.177734375 28.671875 87.177734375 27.236328125Q87.177734375 26.25 87.79296875 25.5859375Q88.408203125 24.921875 89.599609375 24.638671875Q89.140625 24.443359375 88.798828125 23.9990234375Q88.45703125 23.5546875 88.45703125 23.056640625Q88.45703125 22.431640625 88.818359375 22.0166015625Q89.1796875 21.6015625 89.86328125 21.201171875Q89.00390625 20.830078125 88.5009765625 20.009765625Q87.998046875 19.189453125 87.998046875 18.076171875Q87.998046875 16.884765625 88.5205078125 16.0498046875Q89.04296875 15.21484375 90.0439453125 14.775390625Q91.044921875 14.3359375 92.48046875 14.3359375Q92.783203125 14.3359375 93.18359375 14.375Q93.583984375 14.4140625 93.9208984375 14.462890625Q94.2578125 14.51171875 94.375 14.541015625H98.18359375V16.0546875L96.474609375 16.494140625Q96.708984375 16.85546875 96.826171875 17.265625Q96.943359375 17.67578125 96.943359375 18.134765625Q96.943359375 19.892578125 95.7177734375 20.8740234375Q94.4921875 21.85546875 92.314453125 21.85546875Q91.796875 21.826171875 91.337890625 21.77734375Q91.11328125 21.953125 90.99609375 22.1484375Q90.87890625 22.34375 90.87890625 22.55859375Q90.87890625 22.7734375 91.0595703125 22.9150390625Q91.240234375 23.056640625 91.6064453125 23.1298828125Q91.97265625 23.203125 92.51953125 23.203125H94.375Q96.171875 23.203125 97.1142578125 23.974609375Q98.056640625 24.74609375 98.056640625 26.240234375Q98.056640625 28.154296875 96.4599609375 29.208984375Q94.86328125 30.263671875 91.875 30.263671875ZM92.001953125 28.3203125Q93.06640625 28.3203125 93.8330078125 28.1201171875Q94.599609375 27.919921875 95.009765625 27.5537109375Q95.419921875 27.1875 95.419921875 26.6796875Q95.419921875 26.26953125 95.1806640625 26.0302734375Q94.94140625 25.791015625 94.4580078125 25.693359375Q93.974609375 25.595703125 93.22265625 25.595703125H91.6796875Q91.1328125 25.595703125 90.6982421875 25.771484375Q90.263671875 25.947265625 90.009765625 26.2646484375Q89.755859375 26.58203125 89.755859375 27.001953125Q89.755859375 27.6171875 90.3466796875 27.96875Q90.9375 28.3203125 92.001953125 28.3203125ZM92.48046875 20.0390625Q93.3203125 20.0390625 93.7109375 19.521484375Q94.1015625 19.00390625 94.1015625 18.115234375Q94.1015625 17.12890625 93.6962890625 16.6357421875Q93.291015625 16.142578125 92.48046875 16.142578125Q91.66015625 16.142578125 91.25 16.6357421875Q90.83984375 17.12890625 90.83984375 18.115234375Q90.83984375 19.00390625 91.2451171875 19.521484375Q91.650390625 20.0390625 92.48046875 20.0390625ZM110.0 14.541015625V25.458984375H107.71484375L107.314453125 24.0625H107.158203125Q106.806640625 24.619140625 106.279296875 24.970703125Q105.751953125 25.322265625 105.1171875 25.48828125Q104.482421875 25.654296875 103.798828125 25.654296875Q102.626953125 25.654296875 101.7578125 25.2392578125Q100.888671875 24.82421875 100.4052734375 23.9453125Q99.921875 23.06640625 99.921875 21.66015625V14.541015625H102.900390625V20.91796875Q102.900390625 22.08984375 103.3203125 22.685546875Q103.740234375 23.28125 104.658203125 23.28125Q105.56640625 23.28125 106.083984375 22.8662109375Q106.6015625 22.451171875 106.8115234375 21.6455078125Q107.021484375 20.83984375 107.021484375 19.677734375V14.541015625ZM117.59765625 14.31640625Q119.794921875 14.31640625 120.966796875 15.2734375Q122.138671875 16.23046875 122.138671875 18.18359375V25.458984375H120.05859375L119.482421875 23.974609375H119.404296875Q118.935546875 24.560546875 118.447265625 24.931640625Q117.958984375 25.302734375 117.32421875 25.478515625Q116.689453125 25.654296875 115.78125 25.654296875Q114.814453125 25.654296875 114.0478515625 25.283203125Q113.28125 24.912109375 112.841796875 24.1455078125Q112.40234375 23.37890625 112.40234375 22.197265625Q112.40234375 20.458984375 113.623046875 19.6337890625Q114.84375 18.80859375 117.28515625 18.720703125L119.1796875 18.662109375V18.18359375Q119.1796875 17.32421875 118.73046875 16.923828125Q118.28125 16.5234375 117.48046875 16.5234375Q116.689453125 16.5234375 115.927734375 16.748046875Q115.166015625 16.97265625 114.404296875 17.314453125L113.41796875 15.302734375Q114.287109375 14.84375 115.3662109375 14.580078125Q116.4453125 14.31640625 117.59765625 14.31640625ZM119.1796875 20.400390625 118.02734375 20.439453125Q116.58203125 20.478515625 116.0205078125 20.95703125Q115.458984375 21.435546875 115.458984375 22.216796875Q115.458984375 22.900390625 115.859375 23.1884765625Q116.259765625 23.4765625 116.904296875 23.4765625Q117.861328125 23.4765625 118.5205078125 22.91015625Q119.1796875 22.34375 119.1796875 21.298828125ZM131.298828125 14.3359375Q131.5234375 14.3359375 131.8212890625 14.3603515625Q132.119140625 14.384765625 132.3046875 14.423828125L132.080078125 17.216796875Q131.93359375 17.16796875 131.6650390625 17.1435546875Q131.396484375 17.119140625 131.201171875 17.119140625Q130.625 17.119140625 130.0830078125 17.265625Q129.541015625 17.412109375 129.111328125 17.7392578125Q128.681640625 18.06640625 128.4326171875 18.5986328125Q128.18359375 19.130859375 128.18359375 19.90234375V25.458984375H125.205078125V14.541015625H127.4609375L127.900390625 16.376953125H128.046875Q128.369140625 15.8203125 128.8525390625 15.3564453125Q129.3359375 14.892578125 129.9560546875 14.6142578125Q130.576171875 14.3359375 131.298828125 14.3359375ZM137.744140625 25.654296875Q135.91796875 25.654296875 134.7705078125 24.2236328125Q133.623046875 22.79296875 133.623046875 20.01953125Q133.623046875 17.216796875 134.78515625 15.7763671875Q135.947265625 14.3359375 137.822265625 14.3359375Q138.603515625 14.3359375 139.19921875 14.55078125Q139.794921875 14.765625 140.2294921875 15.126953125Q140.6640625 15.48828125 140.966796875 15.9375H141.064453125Q141.005859375 15.625 140.9228515625 15.0146484375Q140.83984375 14.404296875 140.83984375 13.759765625V10.263671875H143.828125V25.458984375H141.54296875L140.966796875 24.04296875H140.83984375Q140.556640625 24.4921875 140.1318359375 24.8583984375Q139.70703125 25.224609375 139.12109375 25.439453125Q138.53515625 25.654296875 137.744140625 25.654296875ZM138.7890625 23.28125Q140.009765625 23.28125 140.5126953125 22.5537109375Q141.015625 21.826171875 141.044921875 20.361328125V20.0390625Q141.044921875 18.447265625 140.556640625 17.6025390625Q140.068359375 16.7578125 138.740234375 16.7578125Q137.75390625 16.7578125 137.197265625 17.607421875Q136.640625 18.45703125 136.640625 20.05859375Q136.640625 21.66015625 137.2021484375 22.470703125Q137.763671875 23.28125 138.7890625 23.28125Z"
     id="text6"
     style="font-weight:bold;font-size:20px;font-family:'Open Sans';dominant-baseline:middle;fill:#ffffff"
     aria-label="jvmguard" />
  <defs
     id="defs6">
    <linearGradient
       id="linearGradient386"
       gradientUnits="userSpaceOnUse"
       gradientTransform="matrix(0.06655225,0,0,0.06655225,223.63617,-4.2806838)"
       x1="-3261.0408"
       y1="146.4852"
       x2="-2857.0176"
       y2="589.99249">
      <stop
         style="stop-color:#4139E7;stop-opacity:1;"
         offset="0"
         id="stop68" />
      <stop
         style="stop-color:#2258D2;stop-opacity:1;"
         offset="1"
         id="stop69" />
    </linearGradient>
  </defs>
  <circle
     style="fill:url(#linearGradient386);fill-rule:evenodd;stroke:none;stroke-width:0.0754609;stroke-linecap:round;stroke-dashoffset:463.748;stroke-opacity:1;paint-order:fill markers stroke"
     id="circle380"
     cx="20.251713"
     cy="20.043474"
     r="19.965673" />
  <path
     d="m 24.394496,32.798777 c -0.01621,0 -0.04038,0 -0.06454,0 -0.508298,-0.03222 -0.919832,-0.411429 -0.984375,-0.911672 L 20.965605,13.177369 18.488661,25.150354 c -0.09676,0.467917 -0.492085,0.806748 -0.968162,0.831017 -0.475975,0.02417 -0.911673,-0.266336 -1.056872,-0.718144 l -2.630197,-8.043744 -1.702313,3.880702 c -0.169466,0.379209 -0.540621,0.62933 -0.960106,0.62933 H 6.8223292 c -0.580898,0 -1.048846,-0.468022 -1.048846,-1.048919 0,-0.580897 0.467948,-1.048816 1.048846,-1.048816 h 3.6548068 l 2.53333,-5.760535 c 0.177523,-0.395321 0.580897,-0.64544 1.008541,-0.621277 0.435697,0.02427 0.806749,0.306611 0.943996,0.718041 l 2.259043,6.906219 2.952816,-14.2561288 c 0.104927,-0.500213 0.556732,-0.855205 1.065029,-0.839074 0.508298,0.01611 0.935838,0.403405 1.000381,0.911683 l 2.476944,19.3552068 1.411916,-5.728314 c 0.112875,-0.467919 0.532464,-0.798798 1.016493,-0.798798 h 5.276507 c 0.580896,0 1.048815,0.468021 1.048815,1.048918 0,0.580898 -0.467919,1.048817 -1.048815,1.048817 h -4.445488 l -2.557496,10.3916 c -0.121033,0.459865 -0.540621,0.790639 -1.024652,0.790639 z"
     fill="#ffffff"
     id="path4"
     style="stroke-width:1.03271" />
  <path
     d="m 32.486675,23.375339 c 1.604102,0 2.904485,-1.300384 2.904485,-2.904485 0,-1.604101 -1.300383,-2.904485 -2.904485,-2.904485 -1.604101,0 -2.904484,1.300384 -2.904484,2.904485 0,1.604101 1.300383,2.904485 2.904484,2.904485 z"
     fill="#ffffff"
     id="path5"
     style="stroke-width:1.03271" />
  <path
     d="m 32.486675,22.003802 c 0.846612,0 1.532948,-0.686337 1.532948,-1.532948 0,-0.846612 -0.686336,-1.532949 -1.532948,-1.532949 -0.846611,0 -1.532949,0.686337 -1.532949,1.532949 0,0.846611 0.686338,1.532948 1.532949,1.532948 z"
     fill="#6abe1e"
     id="path6"
     style="fill:#6abe1e;fill-opacity:1;stroke-width:1.03271" />
</svg>
