<?xml version="1.0" encoding="UTF-8" standalone="no"?>
<svg
   width="40"
   height="40"
   viewBox="0 0 40 40"
   fill="none"
   version="1.1"
   id="svg6"
   xmlns="http://www.w3.org/2000/svg"
>
  <defs
     id="defs6">
    <linearGradient
       id="linearGradient386"
       gradientUnits="userSpaceOnUse"
       gradientTransform="matrix(0.06655225,0,0,0.06655225,223.40047,-4.2692402)"
       x1="-3261.0408"
       y1="146.4852"
       x2="-2857.0176"
       y2="589.99249">
      <stop
         style="stop-color:#4139E7;stop-opacity:1;"
         offset="0"
         id="stop68" />
      <stop
         style="stop-color:#2258D2;stop-opacity:1;"
         offset="1"
         id="stop69" />
    </linearGradient>
  </defs>
  <circle
     style="fill:url(#linearGradient386);fill-rule:evenodd;stroke:none;stroke-width:0.0754609;stroke-linecap:round;stroke-dashoffset:463.748;stroke-opacity:1;paint-order:fill markers stroke"
     id="circle380"
     cx="20.016014"
     cy="20.05492"
     r="19.965673" />
  <path
     d="m 24.158796,32.810221 c -0.01621,0 -0.04038,0 -0.06454,0 -0.508298,-0.03222 -0.919832,-0.411429 -0.984375,-0.911672 L 20.729905,13.188813 18.252961,25.161798 c -0.09676,0.467917 -0.492085,0.806748 -0.968162,0.831017 -0.475975,0.02417 -0.911673,-0.266336 -1.056872,-0.718144 l -2.630197,-8.043744 -1.702313,3.880702 c -0.169466,0.379209 -0.540621,0.62933 -0.960106,0.62933 H 6.5866286 c -0.5808977,0 -1.0488461,-0.468022 -1.0488461,-1.048919 0,-0.580897 0.4679484,-1.048816 1.0488461,-1.048816 h 3.6548074 l 2.53333,-5.760535 c 0.177523,-0.395321 0.580897,-0.64544 1.008541,-0.621277 0.435697,0.02427 0.806749,0.306611 0.943996,0.718041 l 2.259043,6.906219 2.952816,-14.2561291 c 0.104927,-0.5002132 0.556732,-0.8552044 1.065029,-0.8390736 0.508298,0.01611 0.935838,0.4034049 1.000381,0.9116824 l 2.476944,19.3552073 1.411916,-5.728314 c 0.112875,-0.467919 0.532464,-0.798798 1.016493,-0.798798 h 5.276507 c 0.580896,0 1.048815,0.468021 1.048815,1.048918 0,0.580898 -0.467919,1.048817 -1.048815,1.048817 h -4.445488 l -2.557496,10.3916 c -0.121033,0.459865 -0.540621,0.790639 -1.024652,0.790639 z"
     fill="#ffffff"
     id="path4"
     style="stroke-width:1.03271" />
  <path
     d="m 32.250975,23.386783 c 1.604102,0 2.904485,-1.300384 2.904485,-2.904485 0,-1.604101 -1.300383,-2.904485 -2.904485,-2.904485 -1.604101,0 -2.904484,1.300384 -2.904484,2.904485 0,1.604101 1.300383,2.904485 2.904484,2.904485 z"
     fill="#ffffff"
     id="path5"
     style="stroke-width:1.03271" />
  <path
     d="m 32.250975,22.015246 c 0.846612,0 1.532948,-0.686337 1.532948,-1.532948 0,-0.846612 -0.686336,-1.532949 -1.532948,-1.532949 -0.846611,0 -1.532949,0.686337 -1.532949,1.532949 0,0.846611 0.686338,1.532948 1.532949,1.532948 z"
     fill="#6abe1e"
     id="path6"
     style="fill:#6abe1e;fill-opacity:1;stroke-width:1.03271" />
</svg>
