<?xml version="1.0" encoding="UTF-8" standalone="no"?>
<svg
    width="500"
    height="500"
    viewBox="0 0 500 500"
    version="1.1"
    id="svg1"
    xml:space="preserve"
    xmlns:xlink="http://www.w3.org/1999/xlink"
    xmlns="http://www.w3.org/2000/svg"
><defs
     id="defs1"><linearGradient
       xlink:href="#linearGradient68"
       id="linearGradient386"
       gradientUnits="userSpaceOnUse"
       gradientTransform="matrix(0.83333333,0,0,0.83333333,2796.6763,-54.574729)"
       x1="-3261.0408"
       y1="146.4852"
       x2="-2857.0176"
       y2="589.99249" /><linearGradient
       id="linearGradient68"><stop
         style="stop-color:#4139E7;stop-opacity:1;"
         offset="0"
         id="stop68" /><stop
         style="stop-color:#2258D2;stop-opacity:1;"
         offset="1"
         id="stop69" /></linearGradient></defs><circle
     style="fill:url(#linearGradient386);fill-rule:evenodd;stroke:none;stroke-width:0.944883;stroke-linecap:round;stroke-dashoffset:463.748;stroke-opacity:1;paint-order:fill markers stroke"
     id="circle380"
     cx="250.00005"
     cy="250"
     r="250" /><path
     d="m 301.87384,409.71538 c -0.20301,0 -0.5056,0 -0.80818,0 -6.36465,-0.40345 -11.51766,-5.15172 -12.32584,-11.4155 l -29.80081,-234.27377 -31.01503,149.9196 c -1.21164,5.85903 -6.16163,10.1017 -12.12283,10.40558 -5.95991,0.30259 -11.41551,-3.33492 -13.23361,-8.99223 L 169.63355,214.6394 148.31806,263.23156 c -2.12197,4.74827 -6.76938,7.88015 -12.02196,7.88015 H 81.844117 c -7.273693,0 -13.133122,-5.86032 -13.133122,-13.13402 0,-7.2737 5.859429,-13.13274 13.133122,-13.13274 h 45.763643 l 31.72107,-72.13049 c 2.22284,-4.94999 7.27369,-8.08187 12.62843,-7.7793 5.45558,0.30388 10.1017,3.83923 11.82024,8.99094 l 28.28658,86.47615 36.97365,-178.507975 c 1.31379,-6.263405 6.97112,-10.70843 13.33575,-10.50645 6.36465,0.201722 11.71809,5.051234 12.52627,11.415628 l 31.01503,242.356017 17.67929,-71.72703 c 1.41336,-5.85904 6.66723,-10.00214 12.72801,-10.00214 h 66.06972 c 7.27369,0 13.13273,5.86033 13.13273,13.13403 0,7.2737 -5.85904,13.13274 -13.13273,13.13274 h -55.66414 l -32.02365,130.11832 c -1.51552,5.75819 -6.76938,9.89999 -12.83017,9.89999 z"
     fill="#ffffff"
     id="path4"
     style="stroke-width:12.931" /><path
     d="m 403.19998,291.71988 c 20.08574,0 36.36847,-16.28274 36.36847,-36.36847 0,-20.08574 -16.28273,-36.36848 -36.36847,-36.36848 -20.08574,0 -36.36847,16.28274 -36.36847,36.36848 0,20.08573 16.28273,36.36847 36.36847,36.36847 z"
     fill="#ffffff"
     id="path5"
     style="stroke-width:12.931" /><path
     d="m 403.19998,274.5462 c 10.60084,0 19.19479,-8.59396 19.19479,-19.19479 0,-10.60085 -8.59395,-19.19481 -19.19479,-19.19481 -10.60084,0 -19.19481,8.59396 -19.19481,19.19481 0,10.60083 8.59397,19.19479 19.19481,19.19479 z"
     fill="#f84e24"
     id="path6"
     style="fill:#6abe1e;fill-opacity:1;stroke-width:12.931" /></svg>
