<?xml version="1.0" encoding="UTF-8" standalone="no"?>
<svg
    width="150"
    height="40"
    viewBox="0 0 150 40"
    fill="none"
    version="1.1"
    id="svg6"
    xmlns="http://www.w3.org/2000/svg"
>
  <path
     d="m 57.558594,25.654297 q -1.923828,0 -3.017578,-1.396485 h -0.15625 q 0.15625,1.367188 0.15625,1.582032 v 4.423828 H 51.5625 V 14.541016 h 2.421875 l 0.419922,1.416015 h 0.136719 q 1.044921,-1.621093 3.095703,-1.621093 1.933593,0 3.027343,1.49414 1.09375,1.494141 1.09375,4.150391 0,1.748047 -0.517578,3.037109 -0.507812,1.289063 -1.455078,1.962891 -0.947265,0.673828 -2.226562,0.673828 z M 56.679687,16.71875 q -1.103515,0 -1.611328,0.683594 -0.507812,0.673828 -0.527343,2.236328 v 0.322265 q 0,1.757813 0.517578,2.519532 0.527343,0.761718 1.660156,0.761718 2.001953,0 2.001953,-3.300781 0,-1.611328 -0.498047,-2.412109 -0.488281,-0.810547 -1.542969,-0.810547 z m 12.060547,-0.263672 q -0.947265,0 -1.484375,0.605469 -0.537109,0.595703 -0.615234,1.699219 h 4.179687 Q 70.800781,17.65625 70.244141,17.060547 69.6875,16.455078 68.740234,16.455078 Z m 0.419922,9.199219 q -2.636719,0 -4.121094,-1.455078 -1.484375,-1.455078 -1.484375,-4.121094 0,-2.744141 1.367188,-4.238281 1.376953,-1.503906 3.798828,-1.503906 2.314453,0 3.603516,1.318359 1.289062,1.318359 1.289062,3.642578 v 1.445312 h -7.041015 q 0.04883,1.269532 0.751953,1.982422 0.703125,0.712891 1.972656,0.712891 0.986328,0 1.865234,-0.205078 0.878907,-0.205078 1.835938,-0.654297 v 2.304687 q -0.78125,0.390625 -1.669922,0.576172 -0.888672,0.195313 -2.167969,0.195313 z m 12.96875,-11.318359 q 0.605469,0 1.00586,0.08789 l -0.22461,2.792969 q -0.361328,-0.09766 -0.878906,-0.09766 -1.425781,0 -2.226563,0.732421 -0.791015,0.732422 -0.791015,2.050782 v 5.55664 H 76.035156 V 14.541016 h 2.25586 l 0.439453,1.835937 h 0.146484 q 0.507813,-0.917969 1.367188,-1.474609 0.86914,-0.566406 1.884765,-0.566406 z m 9.023438,2.441406 h -2.578125 v 8.68164 h -2.978516 v -8.68164 h -1.640625 v -1.435547 l 1.640625,-0.800781 v -0.800782 q 0,-1.865234 0.917969,-2.724609 0.917969,-0.859375 2.939453,-0.859375 1.542969,0 2.744141,0.458984 l -0.761719,2.1875 q -0.898438,-0.283203 -1.660156,-0.283203 -0.634766,0 -0.917969,0.38086 -0.283203,0.371093 -0.283203,0.957031 v 0.683594 h 2.578125 z m 1.582031,-5.058594 q 0,-1.455078 1.621094,-1.455078 1.621093,0 1.621093,1.455078 0,0.693359 -0.410156,1.083984 -0.40039,0.38086 -1.210937,0.38086 -1.621094,0 -1.621094,-1.464844 z m 3.105469,13.740234 H 92.861328 V 14.541016 h 2.978516 z m 13.203126,0 h -2.97852 v -6.376953 q 0,-1.18164 -0.41992,-1.767578 -0.41992,-0.595703 -1.33789,-0.595703 -1.25,0 -1.80664,0.839844 -0.55664,0.830078 -0.55664,2.763672 v 5.136718 H 98.964844 V 14.541016 h 2.275386 l 0.4004,1.396484 h 0.16601 q 0.49805,-0.791016 1.36719,-1.191406 0.8789,-0.410156 1.99219,-0.410156 1.90429,0 2.89062,1.035156 0.98633,1.02539 0.98633,2.96875 z m 5.43945,-5.478515 q 0,1.621093 0.52735,2.451172 0.53711,0.830078 1.73828,0.830078 1.1914,0 1.70898,-0.820313 0.52735,-0.830078 0.52735,-2.460937 0,-1.621094 -0.52735,-2.431641 -0.52734,-0.810547 -1.72851,-0.810547 -1.19141,0 -1.71875,0.810547 -0.52735,0.800781 -0.52735,2.431641 z m 7.54883,0 q 0,2.666015 -1.40625,4.169922 -1.40625,1.503906 -3.91602,1.503906 -1.57226,0 -2.77343,-0.683594 -1.20117,-0.693359 -1.84571,-1.982422 -0.64453,-1.289062 -0.64453,-3.007812 0,-2.675782 1.39649,-4.160156 1.39648,-1.484375 3.92578,-1.484375 1.57226,0 2.77344,0.683593 1.20117,0.683594 1.8457,1.962891 0.64453,1.279297 0.64453,2.998047 z"
     id="text6"
     style="font-weight:bold;font-size:20px;font-family:'Open Sans';dominant-baseline:middle;fill:#ffffff"
     aria-label="jvmguard" />
  <defs
     id="defs6">
    <linearGradient
       id="linearGradient386"
       gradientUnits="userSpaceOnUse"
       gradientTransform="matrix(0.06655225,0,0,0.06655225,223.63617,-4.2806838)"
       x1="-3261.0408"
       y1="146.4852"
       x2="-2857.0176"
       y2="589.99249">
      <stop
         style="stop-color:#4139E7;stop-opacity:1;"
         offset="0"
         id="stop68" />
      <stop
         style="stop-color:#2258D2;stop-opacity:1;"
         offset="1"
         id="stop69" />
    </linearGradient>
  </defs>
  <circle
     style="fill:url(#linearGradient386);fill-rule:evenodd;stroke:none;stroke-width:0.0754609;stroke-linecap:round;stroke-dashoffset:463.748;stroke-opacity:1;paint-order:fill markers stroke"
     id="circle380"
     cx="20.251713"
     cy="20.043474"
     r="19.965673" />
  <path
     d="m 24.394496,32.798777 c -0.01621,0 -0.04038,0 -0.06454,0 -0.508298,-0.03222 -0.919832,-0.411429 -0.984375,-0.911672 L 20.965605,13.177369 18.488661,25.150354 c -0.09676,0.467917 -0.492085,0.806748 -0.968162,0.831017 -0.475975,0.02417 -0.911673,-0.266336 -1.056872,-0.718144 l -2.630197,-8.043744 -1.702313,3.880702 c -0.169466,0.379209 -0.540621,0.62933 -0.960106,0.62933 H 6.8223292 c -0.580898,0 -1.048846,-0.468022 -1.048846,-1.048919 0,-0.580897 0.467948,-1.048816 1.048846,-1.048816 h 3.6548068 l 2.53333,-5.760535 c 0.177523,-0.395321 0.580897,-0.64544 1.008541,-0.621277 0.435697,0.02427 0.806749,0.306611 0.943996,0.718041 l 2.259043,6.906219 2.952816,-14.2561288 c 0.104927,-0.500213 0.556732,-0.855205 1.065029,-0.839074 0.508298,0.01611 0.935838,0.403405 1.000381,0.911683 l 2.476944,19.3552068 1.411916,-5.728314 c 0.112875,-0.467919 0.532464,-0.798798 1.016493,-0.798798 h 5.276507 c 0.580896,0 1.048815,0.468021 1.048815,1.048918 0,0.580898 -0.467919,1.048817 -1.048815,1.048817 h -4.445488 l -2.557496,10.3916 c -0.121033,0.459865 -0.540621,0.790639 -1.024652,0.790639 z"
     fill="#ffffff"
     id="path4"
     style="stroke-width:1.03271" />
  <path
     d="m 32.486675,23.375339 c 1.604102,0 2.904485,-1.300384 2.904485,-2.904485 0,-1.604101 -1.300383,-2.904485 -2.904485,-2.904485 -1.604101,0 -2.904484,1.300384 -2.904484,2.904485 0,1.604101 1.300383,2.904485 2.904484,2.904485 z"
     fill="#ffffff"
     id="path5"
     style="stroke-width:1.03271" />
  <path
     d="m 32.486675,22.003802 c 0.846612,0 1.532948,-0.686337 1.532948,-1.532948 0,-0.846612 -0.686336,-1.532949 -1.532948,-1.532949 -0.846611,0 -1.532949,0.686337 -1.532949,1.532949 0,0.846611 0.686338,1.532948 1.532949,1.532948 z"
     fill="#6abe1e"
     id="path6"
     style="fill:#6abe1e;fill-opacity:1;stroke-width:1.03271" />
</svg>
